<svg id="Layer_1" data-name="Layer 1" xmlns="http://www.w3.org/2000/svg" viewBox="0 0 773.77 381.17"><defs><style>.cls-1{font-size:270.47px;fill:#9cca73;font-family:TimesNewRomanPSMT, Times New Roman;letter-spacing:-0.05em;}.cls-2{letter-spacing:0.05em;}.cls-3{fill:none;stroke:#2b9fbb;stroke-miterlimit:10;stroke-width:10px;}</style></defs><title>logo-nova-fonte-svg-ult</title><text class="cls-1" transform="translate(0 224.78) scale(1.03 1)">Doc<tspan class="cls-2" x="410.04" y="0">tor</tspan></text><path class="cls-3" d="M865,367.7c0,83.2.54,97.42,26.35,100,47.19,4.74,34.63-93.49,62.92-99.92,28.08-6.38,35.69,42.37,32.87,95.83" transform="translate(-285.51 -117.73)"/><ellipse class="cls-3" cx="700.39" cy="359.82" rx="16.9" ry="16.35"/><path class="cls-3" d="M837.73,212.22c-39.3-.24-42.89-1.35-42.92,5.82-.13,28.67.3,83.76,1.52,90.28,7.44,39.8,37.39,59.26,72.2,59.47C905,368,934,347.69,941.12,308c1.65-9.13,1.63-62.48,1.55-90.21,0-7.09-20.25-5.4-45.42-5.63" transform="translate(-285.51 -117.73)"/></svg>